<svg width="55" height="40" viewBox="0 0 55 40" fill="none" xmlns="http://www.w3.org/2000/svg">
<path d="M0.227156 0C3.25276 4.00766e-05 5.938 0.82611 8.28287 2.47857C10.6657 4.0936 12.5004 6.40383 13.7863 9.40856C15.11 12.4132 15.7721 15.9437 15.7721 20C15.7721 24.0563 15.11 27.5868 13.7863 30.5914C12.5004 33.5962 10.6657 35.9252 8.28287 37.5778C5.938 39.1927 3.25275 40 0.227156 40C0.151304 40 0.0754475 39.9987 0 39.9977V37.3504C0.0753828 37.3517 0.151248 37.3523 0.227156 37.3523C2.72334 37.3522 4.91715 36.676 6.80821 35.3239C8.73705 33.9342 10.2309 31.9436 11.2899 29.3522C12.3489 26.723 12.8786 23.6057 12.8786 20C12.8786 16.3944 12.3489 13.2958 11.2899 10.7042C10.2309 8.0752 8.73704 6.0846 6.80821 4.73247C4.91715 3.34283 2.72334 2.64779 0.227156 2.64775C0.151251 2.64775 0.0753799 2.64784 0 2.64912V0.00183394C0.0754453 0.000795467 0.151306 0 0.227156 0Z" fill="url(#paint0_radial_713_669)"/>
<path d="M45.4685 2.30984L33.5544 17.4646C37.9418 17.5773 41.2702 18.6481 43.5396 20.6763C45.8466 22.6669 47 25.3148 47 28.62C47 30.8359 46.4707 32.8077 45.4118 34.5353C44.3527 36.2255 42.7642 37.5591 40.6461 38.5356C38.5659 39.5121 36.0507 40 33.1006 40C30.2261 40 27.5217 39.5305 24.9876 38.5915C22.4535 37.615 20.4865 36.3195 19.0871 34.7045L20.5622 32.507C21.8482 33.9342 23.5881 35.0988 25.7817 36.0002C28.0132 36.9016 30.453 37.3523 33.1006 37.3523C36.618 37.3522 39.3224 36.5823 41.2135 35.0424C43.1045 33.465 44.0502 31.3241 44.0502 28.62C44.0502 25.8782 43.0857 23.737 41.1567 22.1971C39.2278 20.6571 36.3342 19.8872 32.4763 19.8872H29.9799V17.8029L41.7242 2.87286H20.5622V0.281509H45.4685V2.30984Z" fill="url(#paint1_radial_713_669)"/>
<defs>
<radialGradient id="paint0_radial_713_669" cx="0" cy="0" r="1" gradientUnits="userSpaceOnUse" gradientTransform="translate(-8.60393e-07 -1.28571) rotate(44.5445) scale(58.8566 47.0099)">
<stop stop-color="#9FC5EE" stop-opacity="0"/>
<stop offset="0.942308" stop-color="white"/>
</radialGradient>
<radialGradient id="paint1_radial_713_669" cx="0" cy="0" r="1" gradientUnits="userSpaceOnUse" gradientTransform="translate(-8.60393e-07 -1.28571) rotate(44.5445) scale(58.8566 47.0099)">
<stop stop-color="#9FC5EE" stop-opacity="0"/>
<stop offset="0.942308" stop-color="white"/>
</radialGradient>
</defs>
</svg>
